<mxfile host="app.diagrams.net" modified="2021-04-09T12:14:46.400Z" agent="5.0 (Macintosh; Intel Mac OS X 11_2_3) AppleWebKit/537.36 (KHTML, like Gecko) Chrome/89.0.4389.114 Safari/537.36" etag="aXRobCMr0NdQduHuTaQ4" version="14.5.8" type="github">
  <diagram id="Iu_lKStJ0fp92__4cDvj" name="Page-1">
    <mxGraphModel dx="1106" dy="214" grid="1" gridSize="10" guides="1" tooltips="1" connect="1" arrows="1" fold="1" page="0" pageScale="1" pageWidth="827" pageHeight="1169" math="0" shadow="0">
      <root>
        <mxCell id="0" />
        <mxCell id="1" parent="0" />
        <mxCell id="0-D_vqW9Sx2XojatgzBT-22" style="edgeStyle=none;rounded=0;orthogonalLoop=1;jettySize=auto;html=1;exitX=1;exitY=0.5;exitDx=0;exitDy=0;entryX=0;entryY=0.5;entryDx=0;entryDy=0;endArrow=none;endFill=0;" edge="1" parent="1" source="0-D_vqW9Sx2XojatgzBT-2" target="0-D_vqW9Sx2XojatgzBT-4">
          <mxGeometry relative="1" as="geometry" />
        </mxCell>
        <mxCell id="0-D_vqW9Sx2XojatgzBT-2" value="&lt;font style=&quot;font-size: 22px&quot;&gt;&lt;b&gt;用户&lt;/b&gt;&lt;/font&gt;" style="rounded=0;whiteSpace=wrap;html=1;strokeWidth=2;shadow=1;" vertex="1" parent="1">
          <mxGeometry x="390" y="620" width="120" height="60" as="geometry" />
        </mxCell>
        <mxCell id="0-D_vqW9Sx2XojatgzBT-15" style="rounded=0;orthogonalLoop=1;jettySize=auto;html=1;exitX=0.5;exitY=1;exitDx=0;exitDy=0;entryX=0.5;entryY=0;entryDx=0;entryDy=0;endArrow=none;endFill=0;" edge="1" parent="1" source="0-D_vqW9Sx2XojatgzBT-3" target="0-D_vqW9Sx2XojatgzBT-2">
          <mxGeometry relative="1" as="geometry" />
        </mxCell>
        <mxCell id="0-D_vqW9Sx2XojatgzBT-3" value="&lt;span style=&quot;font-size: 22px&quot;&gt;&lt;b&gt;用户id&lt;/b&gt;&lt;/span&gt;" style="ellipse;whiteSpace=wrap;html=1;strokeWidth=2;" vertex="1" parent="1">
          <mxGeometry x="240" y="480" width="120" height="80" as="geometry" />
        </mxCell>
        <mxCell id="0-D_vqW9Sx2XojatgzBT-23" style="edgeStyle=none;rounded=0;orthogonalLoop=1;jettySize=auto;html=1;exitX=1;exitY=0.5;exitDx=0;exitDy=0;entryX=0;entryY=0.5;entryDx=0;entryDy=0;endArrow=none;endFill=0;" edge="1" parent="1" source="0-D_vqW9Sx2XojatgzBT-4" target="0-D_vqW9Sx2XojatgzBT-10">
          <mxGeometry relative="1" as="geometry" />
        </mxCell>
        <mxCell id="0-D_vqW9Sx2XojatgzBT-4" value="&lt;font style=&quot;font-size: 22px&quot;&gt;&lt;b&gt;包含&lt;/b&gt;&lt;/font&gt;" style="rhombus;whiteSpace=wrap;html=1;strokeWidth=2;" vertex="1" parent="1">
          <mxGeometry x="580" y="610" width="120" height="80" as="geometry" />
        </mxCell>
        <mxCell id="0-D_vqW9Sx2XojatgzBT-16" style="edgeStyle=none;rounded=0;orthogonalLoop=1;jettySize=auto;html=1;exitX=0.5;exitY=1;exitDx=0;exitDy=0;endArrow=none;endFill=0;" edge="1" parent="1" source="0-D_vqW9Sx2XojatgzBT-5">
          <mxGeometry relative="1" as="geometry">
            <mxPoint x="450" y="620" as="targetPoint" />
          </mxGeometry>
        </mxCell>
        <mxCell id="0-D_vqW9Sx2XojatgzBT-5" value="&lt;span style=&quot;font-size: 22px&quot;&gt;&lt;b&gt;用户名&lt;/b&gt;&lt;/span&gt;" style="ellipse;whiteSpace=wrap;html=1;strokeWidth=2;" vertex="1" parent="1">
          <mxGeometry x="540" y="480" width="120" height="80" as="geometry" />
        </mxCell>
        <mxCell id="0-D_vqW9Sx2XojatgzBT-17" style="edgeStyle=none;rounded=0;orthogonalLoop=1;jettySize=auto;html=1;exitX=1;exitY=0.5;exitDx=0;exitDy=0;endArrow=none;endFill=0;" edge="1" parent="1" source="0-D_vqW9Sx2XojatgzBT-6" target="0-D_vqW9Sx2XojatgzBT-2">
          <mxGeometry relative="1" as="geometry" />
        </mxCell>
        <mxCell id="0-D_vqW9Sx2XojatgzBT-6" value="&lt;span style=&quot;font-size: 22px&quot;&gt;&lt;b&gt;用户密码&lt;/b&gt;&lt;/span&gt;" style="ellipse;whiteSpace=wrap;html=1;strokeWidth=2;" vertex="1" parent="1">
          <mxGeometry x="240" y="610" width="120" height="80" as="geometry" />
        </mxCell>
        <mxCell id="0-D_vqW9Sx2XojatgzBT-20" style="edgeStyle=none;rounded=0;orthogonalLoop=1;jettySize=auto;html=1;exitX=1;exitY=0;exitDx=0;exitDy=0;entryX=0.5;entryY=1;entryDx=0;entryDy=0;endArrow=none;endFill=0;" edge="1" parent="1" source="0-D_vqW9Sx2XojatgzBT-7" target="0-D_vqW9Sx2XojatgzBT-2">
          <mxGeometry relative="1" as="geometry" />
        </mxCell>
        <mxCell id="0-D_vqW9Sx2XojatgzBT-7" value="&lt;span style=&quot;font-size: 22px&quot;&gt;&lt;b&gt;用户类型&lt;/b&gt;&lt;/span&gt;" style="ellipse;whiteSpace=wrap;html=1;strokeWidth=2;" vertex="1" parent="1">
          <mxGeometry x="240" y="720" width="120" height="80" as="geometry" />
        </mxCell>
        <mxCell id="0-D_vqW9Sx2XojatgzBT-21" style="edgeStyle=none;rounded=0;orthogonalLoop=1;jettySize=auto;html=1;exitX=0.5;exitY=0;exitDx=0;exitDy=0;endArrow=none;endFill=0;" edge="1" parent="1" source="0-D_vqW9Sx2XojatgzBT-8">
          <mxGeometry relative="1" as="geometry">
            <mxPoint x="450" y="680" as="targetPoint" />
          </mxGeometry>
        </mxCell>
        <mxCell id="0-D_vqW9Sx2XojatgzBT-8" value="&lt;span style=&quot;font-size: 22px&quot;&gt;&lt;b&gt;用户状态&lt;/b&gt;&lt;/span&gt;" style="ellipse;whiteSpace=wrap;html=1;strokeWidth=2;" vertex="1" parent="1">
          <mxGeometry x="390" y="720" width="120" height="80" as="geometry" />
        </mxCell>
        <mxCell id="0-D_vqW9Sx2XojatgzBT-14" style="edgeStyle=orthogonalEdgeStyle;rounded=0;orthogonalLoop=1;jettySize=auto;html=1;exitX=0.5;exitY=1;exitDx=0;exitDy=0;endArrow=none;endFill=0;" edge="1" parent="1" source="0-D_vqW9Sx2XojatgzBT-9" target="0-D_vqW9Sx2XojatgzBT-2">
          <mxGeometry relative="1" as="geometry" />
        </mxCell>
        <mxCell id="0-D_vqW9Sx2XojatgzBT-9" value="&lt;span style=&quot;font-size: 22px&quot;&gt;&lt;b&gt;用户信息&lt;/b&gt;&lt;/span&gt;" style="ellipse;whiteSpace=wrap;html=1;strokeWidth=2;" vertex="1" parent="1">
          <mxGeometry x="390" y="480" width="120" height="80" as="geometry" />
        </mxCell>
        <mxCell id="0-D_vqW9Sx2XojatgzBT-24" style="edgeStyle=none;rounded=0;orthogonalLoop=1;jettySize=auto;html=1;exitX=0.5;exitY=1;exitDx=0;exitDy=0;entryX=0.5;entryY=0;entryDx=0;entryDy=0;endArrow=none;endFill=0;" edge="1" parent="1" source="0-D_vqW9Sx2XojatgzBT-10" target="0-D_vqW9Sx2XojatgzBT-13">
          <mxGeometry relative="1" as="geometry" />
        </mxCell>
        <mxCell id="0-D_vqW9Sx2XojatgzBT-25" style="edgeStyle=none;rounded=0;orthogonalLoop=1;jettySize=auto;html=1;exitX=0.5;exitY=0;exitDx=0;exitDy=0;entryX=0.5;entryY=1;entryDx=0;entryDy=0;endArrow=none;endFill=0;" edge="1" parent="1" source="0-D_vqW9Sx2XojatgzBT-10" target="0-D_vqW9Sx2XojatgzBT-11">
          <mxGeometry relative="1" as="geometry" />
        </mxCell>
        <mxCell id="0-D_vqW9Sx2XojatgzBT-26" style="edgeStyle=none;rounded=0;orthogonalLoop=1;jettySize=auto;html=1;exitX=1;exitY=0.5;exitDx=0;exitDy=0;entryX=0;entryY=0.5;entryDx=0;entryDy=0;endArrow=none;endFill=0;" edge="1" parent="1" source="0-D_vqW9Sx2XojatgzBT-10" target="0-D_vqW9Sx2XojatgzBT-12">
          <mxGeometry relative="1" as="geometry" />
        </mxCell>
        <mxCell id="0-D_vqW9Sx2XojatgzBT-10" value="&lt;font style=&quot;font-size: 22px&quot;&gt;&lt;b&gt;用户钱包&lt;/b&gt;&lt;/font&gt;" style="rounded=0;whiteSpace=wrap;html=1;strokeWidth=2;shadow=1;" vertex="1" parent="1">
          <mxGeometry x="770" y="620" width="120" height="60" as="geometry" />
        </mxCell>
        <mxCell id="0-D_vqW9Sx2XojatgzBT-11" value="&lt;span style=&quot;font-size: 22px&quot;&gt;&lt;b&gt;助记词&lt;/b&gt;&lt;/span&gt;" style="ellipse;whiteSpace=wrap;html=1;strokeWidth=2;" vertex="1" parent="1">
          <mxGeometry x="770" y="490" width="120" height="80" as="geometry" />
        </mxCell>
        <mxCell id="0-D_vqW9Sx2XojatgzBT-12" value="&lt;span style=&quot;font-size: 22px&quot;&gt;&lt;b&gt;公私钥&lt;/b&gt;&lt;/span&gt;" style="ellipse;whiteSpace=wrap;html=1;strokeWidth=2;" vertex="1" parent="1">
          <mxGeometry x="940" y="610" width="120" height="80" as="geometry" />
        </mxCell>
        <mxCell id="0-D_vqW9Sx2XojatgzBT-13" value="&lt;span style=&quot;font-size: 22px&quot;&gt;&lt;b&gt;钱包地址&lt;/b&gt;&lt;/span&gt;" style="ellipse;whiteSpace=wrap;html=1;strokeWidth=2;" vertex="1" parent="1">
          <mxGeometry x="770" y="720" width="120" height="80" as="geometry" />
        </mxCell>
        <mxCell id="0-D_vqW9Sx2XojatgzBT-28" value="&lt;font style=&quot;font-size: 22px&quot;&gt;&lt;b&gt;1&lt;/b&gt;&lt;/font&gt;" style="text;html=1;strokeColor=none;fillColor=none;align=center;verticalAlign=middle;whiteSpace=wrap;rounded=0;" vertex="1" parent="1">
          <mxGeometry x="530" y="630" width="40" height="20" as="geometry" />
        </mxCell>
        <mxCell id="0-D_vqW9Sx2XojatgzBT-29" value="&lt;font style=&quot;font-size: 22px&quot;&gt;&lt;b&gt;n&lt;/b&gt;&lt;/font&gt;" style="text;html=1;strokeColor=none;fillColor=none;align=center;verticalAlign=middle;whiteSpace=wrap;rounded=0;" vertex="1" parent="1">
          <mxGeometry x="720" y="630" width="40" height="20" as="geometry" />
        </mxCell>
      </root>
    </mxGraphModel>
  </diagram>
</mxfile>
